<?xml version="1.0" encoding="utf-8"?>
<!-- Generator: Adobe Illustrator 24.0.0, SVG Export Plug-In . SVG Version: 6.00 Build 0)  -->
<svg version="1.1" id="Livello_1" xmlns="http://www.w3.org/2000/svg" xmlns:xlink="http://www.w3.org/1999/xlink" x="0px" y="0px"
	 viewBox="0 0 1920 1080" style="enable-background:new 0 0 1920 1080;" xml:space="preserve">
<style type="text/css">
	.st0{fill-rule:evenodd;clip-rule:evenodd;fill:#FFFFFF;filter:url(#Adobe_OpacityMaskFilter);}
	.st1{mask:url(#mask0_2_);}
	.st2{fill:#DAA520;}
</style>
<defs>
	<filter id="Adobe_OpacityMaskFilter" filterUnits="userSpaceOnUse" x="826.7" y="412.7" width="262.1" height="254.8">
		<feColorMatrix  type="matrix" values="1 0 0 0 0  0 1 0 0 0  0 0 1 0 0  0 0 0 1 0"/>
	</filter>
</defs>
<mask maskUnits="userSpaceOnUse" x="826.7" y="412.7" width="262.1" height="254.8" id="mask0_2_">
	<path class="st0" d="M1014.4,666.4c4,1.6,8.6,1.5,12.7-0.5l52.7-25.4c5.5-2.7,9.1-8.3,9.1-14.4v-172c0-6.1-3.5-11.8-9.1-14.4
		l-52.7-25.4c-5.3-2.6-11.6-1.9-16.3,1.5c-0.7,0.5-1.3,1-1.9,1.6L908,509.5L864,476.2c-4.1-3.1-9.8-2.9-13.6,0.6l-14.1,12.8
		c-4.6,4.2-4.7,11.5,0,15.8l38.1,34.8l-38.1,34.8c-4.6,4.2-4.6,11.5,0,15.8l14.1,12.8c3.8,3.5,9.5,3.7,13.6,0.6l43.9-33.4
		l100.9,92.1C1010.5,664.4,1012.4,665.6,1014.4,666.4z M1024.9,482l-76.6,58.1l76.6,58.1V482z"/>
</mask>
<g class="st1">
	<path class="st2" d="M1085.8,442.7l-58.8-28.3c-6.1-2.9-13.4-1.7-18.2,3.1L836.2,574.9c-4.6,4.2-4.6,11.5,0,15.8l14.1,12.8
		c3.8,3.5,9.5,3.7,13.6,0.6l207.9-157.7c7-5.3,17-0.3,17,8.4v-7.3C1088.8,445.4,1087.7,443.6,1085.8,442.7z"/>
	<g>
		<path class="st2" d="M1079,640.5l-52.7,25.4c-6.1,2.9-13.4,1.7-18.2-3.1L826.7,497.5l22.8-20.7c3.8-3.5,9.5-3.7,13.6-0.6
			l207.9,157.7c7,5.3,17,0.3,17-8.4v0.6C1088.1,632.2,1084.6,637.8,1079,640.5z"/>
	</g>
	<g>
		<path class="st2" d="M1027,665.8c-6.1,2.9-13.4,1.7-18.2-3.1c5.9,5.9,16,1.7,16-6.6V424c0-8.4-10.1-12.5-16-6.6
			c4.8-4.8,12.1-6,18.2-3.1l58.8,28.3c1.8,0.9,3,2.8,3,4.8v185.4c0,2-1.2,3.9-3,4.8L1027,665.8z"/>
	</g>
</g>
<path class="st2" d="M969.4,412.8c0,0-139.9,6.7-137.5,127.2c2.4,120.6,137.5,127.5,137.5,127.5l-18.2,44.6c0,0-176-26-175.6-172.1
	c0-163.4,193.8-172.8,193.8-172.8V412.8c-3.1-4.2-6.3-8.5-9.4-12.7"/>
<polyline class="st2" points="862.8,605 848.9,614.3 837.4,601.4 856.8,591.2 "/>
<polygon class="st2" points="865.4,477.8 839.2,456.6 828.6,474 850.1,490.3 "/>
</svg>
